<?xml version="1.0" standalone="no"?>
<!DOCTYPE svg PUBLIC "-//W3C//DTD SVG 20010904//EN"
 "http://www.w3.org/TR/2001/REC-SVG-20010904/DTD/svg10.dtd">
<svg version="1.0" xmlns="http://www.w3.org/2000/svg"
 width="1024.000000pt" height="1024.000000pt" viewBox="0 0 1024.000000 1024.000000"
 preserveAspectRatio="xMidYMid meet">

<g transform="translate(0.000000,1024.000000) scale(0.100000,-0.100000)"
fill="#000000" stroke="none">
<path d="M4680 8613 c-145 -7 -435 -35 -599 -59 -641 -92 -1068 -266 -1187
-485 -18 -33 -19 -107 -22 -2009 -2 -1383 0 -1986 8 -2012 59 -204 594 -397
1340 -482 485 -56 1159 -67 1605 -26 820 76 1414 263 1526 481 19 37 19 83 19
2006 0 1325 -3 1980 -10 2005 -24 86 -135 188 -290 267 -411 210 -1127 324
-2005 319 -176 -1 -349 -3 -385 -5z m810 -273 c654 -36 1155 -129 1440 -268
85 -42 160 -108 160 -141 0 -129 -311 -255 -855 -345 -358 -60 -654 -81 -1110
-81 -716 1 -1275 71 -1675 210 -210 74 -300 138 -300 214 0 32 66 98 134 135
353 196 1366 322 2206 276z m-2124 -1124 c73 -73 24 -176 -82 -176 -84 0 -128
114 -66 172 53 50 101 51 148 4z m3654 9 c27 -24 43 -71 36 -101 -4 -15 -20
-39 -36 -55 -42 -43 -100 -41 -146 5 -51 51 -43 118 18 157 38 23 98 21 128
-6z m-3145 -127 c59 -52 45 -136 -28 -171 -46 -23 -79 -17 -118 23 -32 32 -38
78 -15 119 29 53 115 68 161 29z m2616 12 c22 -13 49 -61 49 -90 0 -34 -28
-78 -60 -95 -37 -19 -63 -19 -101 1 -37 19 -63 74 -54 115 10 43 58 79 106 79
22 0 49 -5 60 -10z m-2111 -75 c62 -32 69 -108 16 -161 -39 -39 -80 -45 -126
-17 -119 70 -12 241 110 178z m1606 -19 c48 -48 47 -95 -1 -143 -33 -33 -39
-35 -81 -30 -52 5 -79 26 -94 73 -21 63 35 133 109 134 24 0 42 -9 67 -34z
m-1083 -7 c29 -13 57 -58 57 -91 0 -41 -36 -86 -78 -99 -76 -22 -152 42 -138
117 13 66 93 103 159 73z m558 -18 c42 -42 41 -102 -2 -142 -68 -63 -179 -21
-179 68 1 92 115 139 181 74z m-2095 -335 c71 -71 23 -176 -81 -176 -80 0
-125 99 -74 164 44 56 106 61 155 12z m3654 9 c73 -66 26 -185 -72 -185 -32 0
-47 7 -74 34 -38 38 -43 70 -19 116 8 16 28 36 43 45 33 19 96 14 122 -10z
m-3139 -134 c41 -41 41 -101 0 -141 -36 -36 -73 -46 -112 -30 -61 26 -86 93
-55 149 32 58 119 69 167 22z m2622 5 c52 -48 46 -124 -12 -163 -40 -27 -59
-28 -107 -8 -69 29 -79 126 -17 175 37 29 102 27 136 -4z m-2140 -45 c43 -17
67 -51 67 -95 -1 -84 -83 -131 -160 -91 -35 18 -50 43 -50 85 0 42 15 67 53
90 36 22 54 24 90 11z m1628 -30 c64 -64 15 -173 -77 -173 -45 0 -82 25 -100
67 -41 100 99 183 177 106z m-1065 -35 c48 -48 47 -95 -1 -143 -33 -33 -39
-35 -81 -30 -65 7 -99 42 -99 101 0 66 41 104 114 105 25 1 41 -7 67 -33z
m513 20 c57 -30 68 -107 22 -158 -25 -28 -36 -33 -76 -33 -40 0 -51 5 -76 33
-42 46 -40 93 5 138 38 38 77 44 125 20z m-2090 -330 c67 -35 68 -140 1 -179
-75 -44 -160 1 -160 85 1 86 81 134 159 94z m3663 -6 c38 -29 52 -72 39 -113
-16 -48 -43 -69 -95 -74 -42 -5 -48 -3 -82 31 -33 33 -36 40 -31 77 6 43 29
76 62 90 35 14 82 10 107 -11z m-3153 -114 c70 -36 67 -147 -4 -181 -41 -19
-58 -19 -95 0 -58 30 -76 90 -43 145 28 49 88 64 142 36z m2632 4 c23 -13 49
-61 49 -92 0 -35 -34 -83 -70 -98 -72 -30 -164 42 -146 114 12 49 58 86 106
86 23 0 50 -5 61 -10z m-2111 -75 c114 -59 19 -234 -101 -185 -35 15 -59 56
-59 101 0 22 10 41 34 65 38 38 77 44 126 19z m1589 1 c31 -17 51 -54 51 -97
0 -42 -56 -99 -98 -99 -71 0 -117 43 -115 108 1 28 9 44 37 69 40 37 79 42
125 19z m-1069 -31 c69 -36 81 -106 26 -161 -27 -27 -42 -34 -74 -34 -113 0
-151 151 -49 195 42 18 62 18 97 0z m540 0 c114 -59 19 -234 -100 -185 -37 15
-60 50 -60 90 0 42 15 67 53 90 38 24 68 25 107 5z m-2091 -329 c31 -17 51
-54 51 -97 0 -22 -10 -41 -34 -65 -46 -46 -99 -47 -145 -5 -88 82 19 223 128
167z m3671 -11 c27 -24 43 -71 36 -101 -12 -44 -59 -84 -101 -84 -68 0 -115
45 -115 109 0 32 32 78 64 92 30 12 94 4 116 -16z m-3139 -134 c62 -62 22
-166 -68 -178 -39 -5 -46 -2 -78 30 -38 38 -46 81 -21 126 32 58 119 69 167
22z m2625 -5 c45 -45 47 -92 5 -138 -26 -29 -36 -33 -79 -33 -81 0 -126 57
-102 131 16 46 54 74 102 74 32 0 47 -7 74 -34z m-2143 -35 c85 -33 91 -148
10 -190 -70 -36 -153 11 -153 87 0 78 72 130 143 103z m1617 -20 c34 -24 46
-62 34 -107 -20 -80 -118 -105 -177 -45 -93 93 36 230 143 152z m-1081 -15
c102 -53 66 -196 -49 -196 -61 0 -110 45 -110 100 0 36 30 81 63 95 41 18 62
18 96 1z m525 0 c43 -18 66 -51 66 -98 0 -56 -34 -89 -98 -96 -47 -4 -54 -2
-82 26 -55 56 -32 149 43 171 18 5 33 10 35 10 1 1 18 -5 36 -13z m-2075 -340
c31 -17 51 -54 51 -97 0 -43 -56 -99 -100 -99 -65 0 -110 43 -110 105 0 83 83
130 159 91z m3670 -12 c78 -65 27 -184 -80 -184 -46 0 -99 56 -99 105 0 29 8
45 34 71 44 44 99 47 145 8z m-3161 -108 c75 -39 72 -145 -5 -181 -47 -23 -95
-13 -127 26 -38 45 -35 92 8 135 38 38 77 44 124 20z m2649 -21 c32 -32 35
-40 30 -77 -8 -62 -44 -93 -108 -93 -43 0 -54 4 -75 28 -34 40 -39 70 -17 114
35 72 113 85 170 28z m-2106 -64 c41 -41 41 -98 0 -143 -25 -28 -36 -33 -76
-33 -40 0 -51 5 -76 33 -64 72 -16 171 84 172 29 0 45 -7 68 -29z m1569 14
c57 -29 68 -102 24 -154 -51 -61 -150 -48 -180 25 -39 93 63 177 156 129z
m-1044 -49 c26 -26 34 -42 34 -71 0 -54 -53 -105 -108 -105 -110 0 -150 143
-54 194 47 26 90 20 128 -18z m535 5 c67 -67 12 -181 -87 -181 -41 0 -94 59
-94 105 0 29 8 45 34 71 46 46 104 48 147 5z m-2127 -315 c71 -30 89 -110 37
-168 -25 -28 -36 -33 -76 -33 -40 0 -51 5 -76 33 -52 58 -28 150 44 171 18 5
33 10 35 10 1 1 18 -5 36 -13z m3683 -12 c55 -35 49 -138 -11 -175 -37 -23
-67 -24 -106 -4 -83 43 -80 148 5 186 42 19 74 17 112 -7z m-3134 -135 c74
-80 -14 -208 -115 -166 -42 18 -58 37 -65 80 -16 103 108 163 180 86z m2593
25 c91 -43 80 -166 -17 -195 -37 -11 -46 -11 -77 7 -24 12 -41 31 -50 56 -13
33 -12 41 4 75 12 23 33 45 54 55 43 22 44 22 86 2z m-2075 -93 c41 -41 41
-98 0 -143 -25 -28 -36 -33 -76 -33 -40 0 -51 5 -76 33 -42 46 -40 93 5 138
46 46 104 48 147 5z m1590 0 c83 -83 -17 -217 -124 -166 -105 50 -68 195 50
195 36 0 50 -6 74 -29z m-1082 -15 c54 -29 67 -105 25 -155 -47 -57 -137 -50
-175 13 -24 40 -24 63 1 104 31 51 93 66 149 38z m524 3 c54 -28 74 -100 41
-147 -76 -109 -237 -17 -182 104 21 44 94 67 141 43z"/>
<path d="M2872 3087 l3 -732 27 -45 c161 -268 745 -472 1597 -556 214 -21 837
-30 1061 -15 833 55 1480 241 1716 493 97 103 89 24 92 857 l3 733 -32 -26
c-219 -184 -814 -349 -1489 -412 -237 -22 -879 -30 -1148 -15 -833 48 -1461
192 -1770 407 l-63 44 3 -733z m2297 -103 c19 -25 21 -40 21 -199 0 -159 -2
-174 -21 -199 -25 -32 -64 -34 -96 -4 -22 21 -23 26 -23 205 0 170 1 184 20
203 29 29 74 26 99 -6z m-251 -130 c32 -22 28 -59 -13 -114 -53 -72 -68 -116
-69 -200 -1 -122 55 -213 167 -272 60 -32 174 -31 239 1 67 32 134 110 154
179 31 106 9 203 -71 308 -40 53 -43 66 -15 94 33 33 59 25 121 -38 191 -197
121 -526 -138 -650 -73 -35 -84 -37 -173 -37 -86 0 -101 3 -163 32 -89 43
-169 119 -210 202 -30 62 -32 71 -32 181 0 103 3 121 26 171 37 79 107 153
149 158 3 1 16 -6 28 -15z"/>
</g>
</svg>
